<?xml version="1.0" standalone="no"?><svg xmlns="http://www.w3.org/2000/svg" viewBox="0 0 1440 320"><path fill="#273036" fill-opacity="1" d="M0,160L30,149.3C60,139,120,117,180,101.3C240,85,300,75,360,85.3C420,96,480,128,540,160C600,192,660,224,720,229.3C780,235,840,213,900,181.3C960,149,1020,107,1080,122.7C1140,139,1200,213,1260,218.7C1320,224,1380,160,1410,128L1440,96L1440,320L1410,320C1380,320,1320,320,1260,320C1200,320,1140,320,1080,320C1020,320,960,320,900,320C840,320,780,320,720,320C660,320,600,320,540,320C480,320,420,320,360,320C300,320,240,320,180,320C120,320,60,320,30,320L0,320Z"></path></svg>